# xmcd
# 
# Track frame offsets:
#     150
#     16773
#     33650
#     51357
#     69463
#     81047
#     120454
#     134085
#     155234
#     177026
#     193662
#     205936
#     219383
# 
# Disc length: 3204
# 
# Revision: 7
# Processed by: cddbd v1.5.2PL0 Copyright (c) Steve Scherf et al.
# Submitted via: fre:ac v1.0.27
# 
DISCID=ba0c820d
DTITLE=Eric Clapton - Slowhand 35th Anniversary
DYEAR=1977
DGENRE=Blues Rock
TTITLE0=Cocaine
TTITLE1=Wonderful Tonight
TTITLE2=Lay Down Sally
TTITLE3=Next Time You See Her
TTITLE4=We're All The Way
TTITLE5=The Core
TTITLE6=May You Never
TTITLE7=Mean Old Frisco
TTITLE8=Peaches And Diesel
TTITLE9=Looking At The Rain (Bonus Tracks)
TTITLE10=Alberta (Bonus Tracks)
TTITLE11=Greyhound Bus (Bonus Tracks)
TTITLE12=Stars Strays And Ashtrays (Bonus Tracks)
EXTD=
EXTT0=
EXTT1=
EXTT2=
EXTT3=
EXTT4=
EXTT5=
EXTT6=
EXTT7=
EXTT8=
EXTT9=
EXTT10=
EXTT11=
EXTT12=
PLAYORDER=
